<?xml version="1.0" encoding="UTF-8"?>
<svg width="17px" height="16px" viewBox="0 0 17 16" version="1.1" xmlns="http://www.w3.org/2000/svg" xmlns:xlink="http://www.w3.org/1999/xlink">
    <title>Group 361</title>
    <g id="页面-1" stroke="none" stroke-width="1" fill="none" fill-rule="evenodd">
        <g id="加入公会" transform="translate(-336.000000, -227.000000)">
            <g id="编组-4" transform="translate(329.000000, 220.000000)">
                <g id="Group-361" transform="translate(7.000000, 7.000000)">
                    <polygon id="Rectangle-316" points="16.1514196 0 16.1514196 15.8990536 0 15.8990536 0 0"></polygon>
                    <g id="Group-360" transform="translate(0.504502, 0.496897)" fill="#FFFFFF">
                        <path d="M9.14866246,15.0526262 C9.15526188,15.8907525 8.48116448,16.5648561 7.64302614,16.5583047 C6.8048878,16.5516571 6.12009035,15.8668535 6.11349093,15.0287272 C6.11349093,15.0287272 6.07365924,9.97010314 5.99399588,-0.147144978 C5.98739646,-0.985271305 6.66149386,-1.65937493 7.4996322,-1.65282346 C8.33777053,-1.6461759 9.02256799,-0.961372315 9.02916741,-0.123245988 C9.02916741,-0.123245988 9.06899909,4.93537807 9.14866246,15.0526262 L9.14866246,15.0526262 Z" id="Rectangle-317" transform="translate(7.571329, 7.452741) rotate(-45.000237) translate(-7.571329, -7.452741) "></path>
                        <path d="M9.02867451,15.0284846 C9.02207509,15.8666109 8.33727763,16.5514145 7.4991393,16.5580621 C6.66100096,16.5646135 5.98690356,15.8905099 5.99350298,15.0523836 C5.99350298,15.0523836 6.03333466,9.99375953 6.11299803,-0.123488588 C6.11959745,-0.961614916 6.8043949,-1.6464185 7.64253324,-1.65306606 C8.48067158,-1.65961753 9.15476898,-0.985513906 9.14816956,-0.147387578 C9.14816956,-0.147387578 9.10833787,4.91123648 9.02867451,15.0284846 L9.02867451,15.0284846 Z" id="Rectangle-318" transform="translate(7.570836, 7.452498) rotate(45.000237) translate(-7.570836, -7.452498) "></path>
                    </g>
                </g>
            </g>
        </g>
    </g>
</svg>